<svg width="24" height="24" viewBox="0 0 24 24" fill="none" xmlns="http://www.w3.org/2000/svg">
<path d="M5.14282 19.7567V5.74861C5.14282 4.93648 5.14282 4.53042 5.30087 4.22023C5.4399 3.94738 5.66173 3.72554 5.93458 3.58652C6.24478 3.42847 6.65084 3.42847 7.46296 3.42847H16.537C17.3491 3.42847 17.7552 3.42847 18.0653 3.58652C18.3382 3.72554 18.56 3.94738 18.6991 4.22023C18.8571 4.53042 18.8571 4.93648 18.8571 5.74861V19.716C18.8571 19.9913 18.8571 20.129 18.8003 20.2016C18.7508 20.2648 18.6755 20.3025 18.5953 20.3042C18.503 20.3062 18.3929 20.2236 18.1725 20.0586L12.533 15.8352C12.4444 15.7689 12.4002 15.7357 12.3514 15.7223C12.3083 15.7104 12.263 15.7095 12.2195 15.7197C12.1702 15.7312 12.1247 15.7625 12.0336 15.8253L5.81367 20.1093C5.59629 20.259 5.4876 20.3339 5.39724 20.3294C5.31854 20.3256 5.24555 20.2872 5.19773 20.2246C5.14282 20.1527 5.14282 20.0207 5.14282 19.7567Z" fill="#6A74C9" stroke="#2A2B2E" stroke-width="0.8" stroke-linecap="round" stroke-linejoin="round"/>
</svg>
