<svg width="24" height="24" viewBox="0 0 24 24" fill="none" xmlns="http://www.w3.org/2000/svg">
<path d="M7.36157 15.8879H4.96157C4.40152 15.8879 4.12149 15.8879 3.90758 15.7789C3.71942 15.6831 3.56644 15.5301 3.47057 15.3419C3.36157 15.128 3.36157 14.848 3.36157 14.2879V10.786C3.36157 10.2259 3.36157 9.94588 3.47057 9.73197C3.56644 9.5438 3.71942 9.39082 3.90758 9.29495C4.12149 9.18596 4.40152 9.18596 4.96157 9.18596H7.36157M7.36157 15.8879V9.18596M7.36157 15.8879L13.4888 20.1333C14.3021 20.6969 14.7088 20.9786 15.0471 20.9627C15.3416 20.9488 15.6151 20.8056 15.7943 20.5714C16 20.3024 16 19.8077 16 18.8181V6.41767C16 5.44663 16 4.96111 15.7975 4.69344C15.6211 4.46026 15.3515 4.31595 15.0597 4.2985C14.7247 4.27847 14.3207 4.54774 13.5126 5.08629L7.36157 9.18596" stroke="#2A2B2E" stroke-width="0.8"/>
<path d="M18.6668 16.9959L19.5684 18.1307M18.6668 8.07869L19.5684 6.93361M19.2099 12.5373H20.5413" stroke="#2A2B2E" stroke-width="0.8" stroke-miterlimit="10" stroke-linecap="round" stroke-linejoin="round"/>
</svg>
