<svg width="22" height="18" viewBox="0 0 22 18" fill="none" xmlns="http://www.w3.org/2000/svg">
<path d="M17.915 1.595H19.175V15.17H17.915V1.595ZM18.83 7.1H21.335V8.135H18.83V7.1ZM14.45 3.065H15.665C15.665 6.92 13.895 10.4 9.515 12.605L8.825 11.645C12.575 9.74 14.45 6.845 14.45 3.26V3.065ZM9.455 3.065H15.095V4.085H9.455V3.065Z" fill="#2A2B2E"/>
<path d="M5.949 6.557H6.705V14.702H5.949V6.557ZM6.498 9.86H8.001V10.481H6.498V9.86ZM3.87 7.439H4.599C4.599 9.752 3.537 11.84 0.909 13.163L0.495 12.587C2.745 11.444 3.87 9.707 3.87 7.556V7.439ZM0.873 7.439H4.257V8.051H0.873V7.439Z" fill="#2A2B2E"/>
</svg>
