<svg width="24" height="24" viewBox="0 0 24 24" fill="none" xmlns="http://www.w3.org/2000/svg">
<path d="M13.6528 20.7618H11.9998H6.53313C5.41302 20.7618 4.85297 20.7618 4.42515 20.5438C4.04882 20.3521 3.74286 20.0461 3.55112 19.6698C3.33313 19.242 3.33313 18.6819 3.33313 17.5618V6.62847C3.33313 5.50836 3.33313 4.94831 3.55112 4.52049C3.74286 4.14416 4.04882 3.8382 4.42515 3.64645C4.85297 3.42847 5.41302 3.42847 6.53313 3.42847H15.51C16.6301 3.42847 17.1902 3.42847 17.618 3.64645C17.9943 3.8382 18.3003 4.14416 18.4921 4.52049C18.71 4.94831 18.71 5.50836 18.71 6.62847V10.7618" stroke="#2A2B2E" stroke-width="0.8" stroke-linecap="round"/>
<path d="M6.84485 7.38159H15.2203" stroke="#2A2B2E" stroke-width="0.8" stroke-linecap="round"/>
<path d="M6.82361 10.3928H15.199" stroke="#2A2B2E" stroke-width="0.8" stroke-linecap="round"/>
<path d="M6.82361 13.4285H10.1668" stroke="#2A2B2E" stroke-width="0.8" stroke-linecap="round"/>
<path d="M13.4386 16.4184C15.2672 16.0878 16.5623 14.6147 16.9107 12.8347C17.2823 14.622 18.6424 16.033 20.362 16.4184C18.7297 16.8113 17.3957 18.1378 16.9107 19.81C16.5029 18.1092 15.2529 16.7735 13.4386 16.4184Z" stroke="#2A2B2E" stroke-width="0.8" stroke-linecap="round" stroke-linejoin="round"/>
</svg>
