<svg width="18" height="18" viewBox="0 0 18 18" fill="none" xmlns="http://www.w3.org/2000/svg">
<path fill-rule="evenodd" clip-rule="evenodd" d="M13.1763 4.82649C13.0127 4.66289 12.8985 4.45201 12.8658 4.22296L12.7749 3.5862C12.6911 2.99994 12.3486 2.46963 11.8016 2.24274C11.2537 2.01547 10.6354 2.14854 10.1611 2.5048L9.6457 2.89194C9.46087 3.03077 9.23118 3.09176 9.00002 3.09176C8.76885 3.09176 8.53916 3.03077 8.35433 2.89194L7.83888 2.50477C7.36469 2.14859 6.74646 2.01608 6.19865 2.24329C5.65174 2.47013 5.30891 3.00002 5.22518 3.58615L5.13424 4.22269C5.10146 4.45219 4.9909 4.6628 4.82697 4.82673C4.66304 4.99065 4.45244 5.10121 4.22294 5.134L3.58645 5.22492C3.00019 5.30868 2.46988 5.65115 2.24298 6.19817C2.01572 6.7461 2.14879 7.36438 2.50504 7.83868L2.8851 8.34465C3.0285 8.53556 3.09565 8.86569 3.10019 9.10441C3.10446 9.32852 3.03423 9.45635 2.89961 9.63557L2.50501 10.1609C2.14883 10.6351 2.01632 11.2533 2.24354 11.8011C2.47038 12.348 3.00026 12.6909 3.5864 12.7746L4.22294 12.8655C4.45244 12.8983 4.66304 13.0089 4.82697 13.1728C4.9909 13.3367 5.10146 13.5473 5.13424 13.7768L5.22517 14.4133C5.30892 14.9996 5.65139 15.5299 6.19842 15.7568C6.74635 15.9841 7.36463 15.851 7.83892 15.4947L8.35433 15.1076C8.53916 14.9688 8.76885 14.9078 9.00002 14.9078C9.23118 14.9078 9.46087 14.9688 9.6457 15.1076L10.1612 15.4948C10.6353 15.851 11.2536 15.9835 11.8014 15.7563C12.3483 15.5294 12.6911 14.9995 12.7749 14.4134L12.8649 13.7827C12.8982 13.5497 13.0757 13.2712 13.2407 13.1034C13.4006 12.9407 13.5454 12.8986 13.7712 12.8664L14.4136 12.7746C14.9998 12.6909 15.5302 12.3484 15.757 11.8014C15.9843 11.2534 15.8512 10.6352 15.495 10.1609L15.1149 9.65489C14.9715 9.46398 14.9044 9.13386 14.8998 8.89513C14.8956 8.67103 14.9658 8.54319 15.1004 8.36397L15.495 7.83863C15.8512 7.36444 15.9837 6.74621 15.7565 6.1984C15.5297 5.6515 14.9998 5.30867 14.4136 5.22493L13.7775 5.13405C13.548 5.10127 13.3402 4.99038 13.1763 4.82649ZM12.375 8.99997C12.375 10.8639 10.8639 12.375 8.99997 12.375C7.13601 12.375 5.62497 10.8639 5.62497 8.99997C5.62497 7.13601 7.13601 5.62497 8.99997 5.62497C10.8639 5.62497 12.375 7.13601 12.375 8.99997Z" fill="#A7A7AF"/>
</svg>
