<svg width="18" height="18" viewBox="0 0 18 18" fill="none" xmlns="http://www.w3.org/2000/svg">
<path fill-rule="evenodd" clip-rule="evenodd" d="M13.2762 10.7013C13.4675 10.4858 13.7979 10.2432 14.3017 10.2432C15.1824 10.2432 15.7741 11.0403 15.7741 11.7833C15.7741 13.3362 13.5682 14.5252 13.2762 14.5252C12.9842 14.5252 10.7783 13.3355 10.7783 11.7833C10.7783 11.0411 11.3692 10.2432 12.2506 10.2432C12.7545 10.2432 13.0849 10.4858 13.2762 10.7013Z" stroke="#6A74C9" stroke-width="0.8" stroke-linecap="round" stroke-linejoin="round"/>
<path d="M10.9734 15.5H9.73364H7.23364C5.34802 15.5 4.40522 15.5 3.81943 14.9142C3.23364 14.3284 3.23364 13.3856 3.23364 11.5V6.5C3.23364 4.61438 3.23364 3.67157 3.81943 3.08579C4.40522 2.5 5.34802 2.5 7.23364 2.5H10.7663C12.6519 2.5 13.5948 2.5 14.1805 3.08579C14.7663 3.67157 14.7663 4.61438 14.7663 6.5V8" stroke="#6A74C9" stroke-width="0.8" stroke-linecap="round"/>
<path d="M5.86719 5.46484H12.1487" stroke="#6A74C9" stroke-width="0.8" stroke-linecap="round"/>
<path d="M5.85156 7.72363H12.1331" stroke="#6A74C9" stroke-width="0.8" stroke-linecap="round"/>
<path d="M5.85132 10H8.35872" stroke="#6A74C9" stroke-width="0.8" stroke-linecap="round"/>
</svg>
