<svg width="18" height="18" viewBox="0 0 18 18" fill="none" xmlns="http://www.w3.org/2000/svg">
<ellipse cx="9" cy="9.0386" rx="6.5" ry="6.5386" stroke="#6A74C9" stroke-width="0.8"/>
<path d="M12 9.02107C12 11.3701 10.8992 13.4496 10.0312 14.7243C9.78203 15.0902 9.65744 15.2732 9.37944 15.3872C9.17813 15.4698 8.82187 15.4698 8.62056 15.3872C8.34256 15.2732 8.21797 15.0902 7.96877 14.7243C7.10079 13.4496 6 11.3701 6 9.02107C6 6.66486 7.10757 4.59933 7.97677 3.34113C8.22344 2.98407 8.34678 2.80554 8.62305 2.6931C8.82241 2.61196 9.17759 2.61196 9.37695 2.6931C9.65322 2.80554 9.77656 2.98407 10.0232 3.34113C10.8924 4.59933 12 6.66486 12 9.02107Z" stroke="#6A74C9" stroke-width="0.8" stroke-linejoin="round"/>
<path d="M2.69092 9H15.3416" stroke="#6A74C9" stroke-width="0.8" stroke-linecap="round"/>
</svg>
