<svg width="18" height="18" viewBox="0 0 18 18" fill="none" xmlns="http://www.w3.org/2000/svg">
<path d="M3 5.39258V12.3198C3 13.4399 3 14 3.21799 14.4278C3.40973 14.8041 3.71569 15.1101 4.09202 15.3018C4.51984 15.5198 5.0799 15.5198 6.2 15.5198H11.8C12.9201 15.5198 13.4802 15.5198 13.908 15.3018C14.2843 15.1101 14.5903 14.8041 14.782 14.4278C15 14 15 13.4399 15 12.3198V5.39258" stroke="#6A74C9" stroke-width="0.8"/>
<path d="M2 6L7.41236 2.90723C7.99104 2.57655 8.28038 2.41121 8.58766 2.34647C8.85957 2.28918 9.14043 2.28918 9.41234 2.34647C9.71962 2.41121 10.009 2.57655 10.5876 2.90723L16 6" stroke="#6A74C9" stroke-width="0.8" stroke-linecap="round"/>
<path d="M7 12C8 13.426 10 13.4505 11 12" stroke="#6A74C9" stroke-width="0.8" stroke-linecap="round"/>
</svg>
