<svg width="18" height="18" viewBox="0 0 18 18" fill="none" xmlns="http://www.w3.org/2000/svg">
<path d="M11.5556 2.42676H6.43746C5.93806 2.42676 5.68836 2.42676 5.4791 2.53006C5.3028 2.61709 5.13897 2.77413 5.04457 2.94659C4.93251 3.1513 4.9225 3.38766 4.90249 3.86039C4.8601 4.86186 4.84941 6.2667 4.99985 7.67357C5.98991 14.2322 11.9998 14.232 12.9998 7.67357C13.1417 6.26091 13.1324 4.86432 13.0928 3.8676V3.86758C13.0738 3.39146 13.0644 3.1534 12.9525 2.94814C12.8581 2.77498 12.6946 2.61783 12.5178 2.5304C12.3082 2.42676 12.0574 2.42676 11.5556 2.42676Z" stroke="#6A74C9" stroke-width="0.8" stroke-linecap="round" stroke-linejoin="round"/>
<path d="M4.86708 3.47656H4.05402C3.64406 3.47656 3.43907 3.47656 3.22023 3.59189C3.06095 3.67584 2.85785 3.88848 2.78131 4.05144C2.67615 4.27535 2.68327 4.43029 2.69751 4.74016C2.75255 5.93793 3.20563 7.7262 5.19238 8.91612" stroke="#6A74C9" stroke-width="0.8" stroke-linecap="round" stroke-linejoin="round"/>
<path d="M13.1336 3.47656H13.9523C14.3608 3.47656 14.565 3.47656 14.7834 3.59125C14.9422 3.6747 15.1453 3.88634 15.2221 4.04853C15.3277 4.27144 15.3213 4.42573 15.3086 4.73432C15.2589 5.93413 14.8111 7.72955 12.8083 8.91612" stroke="#6A74C9" stroke-width="0.8" stroke-linecap="round" stroke-linejoin="round"/>
<path d="M9 12.5986L9.00073 15.6228M9.00073 15.6228H13M9.00073 15.6228H5.00073" stroke="#6A74C9" stroke-width="0.8" stroke-linecap="round" stroke-linejoin="round"/>
</svg>
