<svg width="192" height="26" viewBox="0 0 192 26" fill="none" xmlns="http://www.w3.org/2000/svg">
<path d="M14.552 24.3202C14.2347 24.5922 13.736 24.8302 13.056 25.0342C12.3987 25.2382 11.6733 25.3402 10.88 25.3402C9.928 25.3402 9.112 25.2042 8.432 24.9322C7.752 24.6375 7.28734 24.2408 7.038 23.7422C6.78867 23.2208 6.48267 22.5522 6.12 21.7362C5.75734 20.8975 5.372 19.9682 4.964 18.9482C4.57867 17.9282 4.17067 16.8515 3.74 15.7182C3.332 14.5622 2.93534 13.3948 2.55 12.2162C2.16467 11.0375 1.802 9.8815 1.462 8.74817C1.122 7.61484 0.827336 6.5495 0.578003 5.55217C0.895336 5.23484 1.34867 4.95151 1.938 4.70217C2.55 4.43017 3.196 4.29417 3.876 4.29417C4.71467 4.29417 5.39467 4.4755 5.916 4.83817C6.46 5.17817 6.85667 5.82417 7.106 6.77617C7.718 8.9975 8.33 11.1282 8.942 13.1682C9.57667 15.1855 10.234 17.2935 10.914 19.4922H11.118C11.73 17.3615 12.3533 15.0382 12.988 12.5222C13.6453 10.0062 14.2687 7.5015 14.858 5.00817C15.266 4.80417 15.6967 4.63417 16.15 4.49817C16.626 4.36217 17.1587 4.29417 17.748 4.29417C18.5867 4.29417 19.3007 4.48684 19.89 4.87217C20.4793 5.23484 20.774 5.84684 20.774 6.70817C20.774 7.20684 20.6493 7.93217 20.4 8.88417C20.1733 9.83617 19.8673 10.9128 19.482 12.1142C19.1193 13.2928 18.7 14.5282 18.224 15.8202C17.7707 17.1122 17.306 18.3362 16.83 19.4922C16.3767 20.6255 15.946 21.6342 15.538 22.5182C15.13 23.3795 14.8013 23.9802 14.552 24.3202Z" fill="#6A74C9"/>
<path d="M22.7824 3.88617C22.7824 3.02484 23.0657 2.2995 23.6324 1.71017C24.2217 1.12084 24.9924 0.826172 25.9444 0.826172C26.8964 0.826172 27.6557 1.12084 28.2224 1.71017C28.8117 2.2995 29.1064 3.02484 29.1064 3.88617C29.1064 4.7475 28.8117 5.47284 28.2224 6.06217C27.6557 6.6515 26.8964 6.94617 25.9444 6.94617C24.9924 6.94617 24.2217 6.6515 23.6324 6.06217C23.0657 5.47284 22.7824 4.7475 22.7824 3.88617ZM28.8344 24.9662C28.5851 25.0115 28.2111 25.0682 27.7124 25.1362C27.2364 25.2268 26.7491 25.2722 26.2504 25.2722C25.7517 25.2722 25.2984 25.2382 24.8904 25.1702C24.5051 25.1022 24.1764 24.9662 23.9044 24.7622C23.6324 24.5582 23.4171 24.2862 23.2584 23.9462C23.1224 23.5835 23.0544 23.1188 23.0544 22.5522V8.71417C23.3037 8.66884 23.6664 8.61217 24.1424 8.54417C24.6411 8.4535 25.1397 8.40817 25.6384 8.40817C26.1371 8.40817 26.5791 8.44217 26.9644 8.51017C27.3724 8.57817 27.7124 8.71417 27.9844 8.91817C28.2564 9.12217 28.4604 9.40551 28.5964 9.76817C28.7551 10.1082 28.8344 10.5615 28.8344 11.1282V24.9662Z" fill="#6A74C9"/>
<path d="M46.4541 20.0702C46.4541 21.7928 45.8081 23.1415 44.5161 24.1162C43.2241 25.0908 41.3201 25.5782 38.8041 25.5782C37.8521 25.5782 36.9681 25.5102 36.1521 25.3742C35.3361 25.2382 34.6334 25.0342 34.0441 24.7622C33.4774 24.4675 33.0241 24.1048 32.6841 23.6742C32.3668 23.2435 32.2081 22.7335 32.2081 22.1442C32.2081 21.6002 32.3214 21.1468 32.5481 20.7842C32.7748 20.3988 33.0468 20.0815 33.3641 19.8322C34.0214 20.1948 34.7694 20.5235 35.6081 20.8182C36.4694 21.0902 37.4554 21.2262 38.5661 21.2262C39.2688 21.2262 39.8014 21.1242 40.1641 20.9202C40.5494 20.7162 40.7421 20.4442 40.7421 20.1042C40.7421 19.7868 40.6061 19.5375 40.3341 19.3562C40.0621 19.1748 39.6088 19.0275 38.9741 18.9142L37.9541 18.7102C35.9821 18.3248 34.5088 17.7242 33.5341 16.9082C32.5821 16.0695 32.1061 14.8795 32.1061 13.3382C32.1061 12.4995 32.2874 11.7402 32.6501 11.0602C33.0128 10.3802 33.5228 9.81351 34.1801 9.36017C34.8374 8.90684 35.6194 8.55551 36.5261 8.30617C37.4554 8.05684 38.4754 7.93217 39.5861 7.93217C40.4248 7.93217 41.2068 8.00017 41.9321 8.13617C42.6801 8.24951 43.3261 8.43084 43.8701 8.68017C44.4141 8.92951 44.8448 9.25817 45.1621 9.66617C45.4794 10.0515 45.6381 10.5162 45.6381 11.0602C45.6381 11.5815 45.5361 12.0348 45.3321 12.4202C45.1508 12.7828 44.9128 13.0888 44.6181 13.3382C44.4368 13.2248 44.1648 13.1115 43.8021 12.9982C43.4394 12.8622 43.0428 12.7488 42.6121 12.6582C42.1814 12.5448 41.7394 12.4542 41.2861 12.3862C40.8554 12.3182 40.4588 12.2842 40.0961 12.2842C39.3481 12.2842 38.7701 12.3748 38.3621 12.5562C37.9541 12.7148 37.7501 12.9755 37.7501 13.3382C37.7501 13.5875 37.8634 13.7915 38.0901 13.9502C38.3168 14.1088 38.7474 14.2562 39.3821 14.3922L40.4361 14.6302C42.6121 15.1288 44.1534 15.8202 45.0601 16.7042C45.9894 17.5655 46.4541 18.6875 46.4541 20.0702Z" fill="#6A74C9"/>
<path d="M49.1125 3.88617C49.1125 3.02484 49.3958 2.2995 49.9625 1.71017C50.5518 1.12084 51.3225 0.826172 52.2745 0.826172C53.2265 0.826172 53.9858 1.12084 54.5525 1.71017C55.1418 2.2995 55.4365 3.02484 55.4365 3.88617C55.4365 4.7475 55.1418 5.47284 54.5525 6.06217C53.9858 6.6515 53.2265 6.94617 52.2745 6.94617C51.3225 6.94617 50.5518 6.6515 49.9625 6.06217C49.3958 5.47284 49.1125 4.7475 49.1125 3.88617ZM55.1645 24.9662C54.9151 25.0115 54.5411 25.0682 54.0425 25.1362C53.5665 25.2268 53.0791 25.2722 52.5805 25.2722C52.0818 25.2722 51.6285 25.2382 51.2205 25.1702C50.8351 25.1022 50.5065 24.9662 50.2345 24.7622C49.9625 24.5582 49.7471 24.2862 49.5885 23.9462C49.4525 23.5835 49.3845 23.1188 49.3845 22.5522V8.71417C49.6338 8.66884 49.9965 8.61217 50.4725 8.54417C50.9711 8.4535 51.4698 8.40817 51.9685 8.40817C52.4671 8.40817 52.9091 8.44217 53.2945 8.51017C53.7025 8.57817 54.0425 8.71417 54.3145 8.91817C54.5865 9.12217 54.7905 9.40551 54.9265 9.76817C55.0851 10.1082 55.1645 10.5615 55.1645 11.1282V24.9662Z" fill="#6A74C9"/>
<path d="M58.9122 2.86617C59.1388 2.79817 59.5015 2.73017 60.0002 2.66217C60.4988 2.57151 61.0088 2.52617 61.5302 2.52617C62.0288 2.52617 62.4708 2.56017 62.8562 2.62817C63.2642 2.69617 63.6042 2.83217 63.8762 3.03617C64.1482 3.24017 64.3522 3.5235 64.4882 3.88617C64.6242 4.22617 64.6922 4.6795 64.6922 5.24617V8.57817C65.2588 8.3515 65.7915 8.19284 66.2902 8.10217C66.8115 8.0115 67.3782 7.96617 67.9902 7.96617C69.0782 7.96617 70.1095 8.15884 71.0842 8.54417C72.0588 8.92951 72.9202 9.49617 73.6682 10.2442C74.4162 10.9695 75.0055 11.8762 75.4362 12.9642C75.8668 14.0522 76.0822 15.3102 76.0822 16.7382C76.0822 18.2115 75.8555 19.5035 75.4022 20.6142C74.9715 21.7022 74.3595 22.6088 73.5662 23.3342C72.7728 24.0595 71.7982 24.6148 70.6422 25.0002C69.5088 25.3628 68.2508 25.5442 66.8682 25.5442C65.3722 25.5442 64.1028 25.3628 63.0602 25.0002C62.0175 24.6602 61.1335 24.2295 60.4082 23.7082C59.4108 23.0055 58.9122 22.0988 58.9122 20.9882V2.86617ZM66.8682 20.9882C67.9108 20.9882 68.7155 20.6368 69.2822 19.9342C69.8715 19.2088 70.1662 18.1435 70.1662 16.7382C70.1662 15.3102 69.8715 14.2448 69.2822 13.5422C68.6928 12.8395 67.8995 12.4882 66.9022 12.4882C66.4488 12.4882 66.0522 12.5335 65.7122 12.6242C65.3948 12.7148 65.0435 12.8508 64.6582 13.0322V20.4442C64.9075 20.6028 65.2022 20.7388 65.5422 20.8522C65.9048 20.9428 66.3468 20.9882 66.8682 20.9882Z" fill="#6A74C9"/>
<path d="M84.7809 24.9662C84.5315 25.0115 84.1575 25.0682 83.6589 25.1362C83.1829 25.2268 82.6955 25.2722 82.1969 25.2722C81.6982 25.2722 81.2449 25.2382 80.8369 25.1702C80.4515 25.1022 80.1229 24.9662 79.8509 24.7622C79.5789 24.5582 79.3635 24.2862 79.2049 23.9462C79.0689 23.5835 79.0009 23.1188 79.0009 22.5522V2.83217C79.2502 2.78684 79.6129 2.73017 80.0889 2.66217C80.5875 2.57151 81.0862 2.52617 81.5849 2.52617C82.0835 2.52617 82.5255 2.56017 82.9109 2.62817C83.3189 2.69617 83.6589 2.83217 83.9309 3.03617C84.2029 3.24017 84.4069 3.5235 84.5429 3.88617C84.7015 4.22617 84.7809 4.6795 84.7809 5.24617V24.9662Z" fill="#6A74C9"/>
<path d="M97.1662 25.5442C95.8288 25.5442 94.5822 25.3628 93.4262 25.0002C92.2928 24.6148 91.2955 24.0482 90.4342 23.3002C89.5955 22.5522 88.9268 21.6115 88.4282 20.4782C87.9522 19.3448 87.7142 18.0188 87.7142 16.5002C87.7142 15.0042 87.9522 13.7235 88.4282 12.6582C88.9268 11.5702 89.5728 10.6862 90.3662 10.0062C91.1595 9.3035 92.0662 8.79351 93.0862 8.47617C94.1062 8.13617 95.1488 7.96617 96.2142 7.96617C97.4155 7.96617 98.5035 8.14751 99.4782 8.51017C100.475 8.87284 101.325 9.3715 102.028 10.0062C102.753 10.6408 103.309 11.4002 103.694 12.2842C104.102 13.1682 104.306 14.1315 104.306 15.1742C104.306 15.9448 104.091 16.5342 103.66 16.9422C103.229 17.3502 102.629 17.6108 101.858 17.7242L93.4602 18.9822C93.7095 19.7302 94.2195 20.2968 94.9902 20.6822C95.7608 21.0448 96.6448 21.2262 97.6422 21.2262C98.5715 21.2262 99.4442 21.1128 100.26 20.8862C101.099 20.6368 101.779 20.3535 102.3 20.0362C102.663 20.2628 102.969 20.5802 103.218 20.9882C103.467 21.3962 103.592 21.8268 103.592 22.2802C103.592 23.3002 103.116 24.0595 102.164 24.5582C101.439 24.9435 100.623 25.2042 99.7162 25.3402C98.8095 25.4762 97.9595 25.5442 97.1662 25.5442ZM96.2142 12.1822C95.6702 12.1822 95.1942 12.2728 94.7862 12.4542C94.4008 12.6355 94.0835 12.8735 93.8342 13.1682C93.5848 13.4402 93.3922 13.7575 93.2562 14.1202C93.1428 14.4602 93.0748 14.8115 93.0522 15.1742L98.8662 14.2222C98.7982 13.7688 98.5488 13.3155 98.1182 12.8622C97.6875 12.4088 97.0528 12.1822 96.2142 12.1822Z" fill="#6A74C9"/>
<path d="M132.765 24.8642C132.516 24.9322 132.119 25.0002 131.575 25.0682C131.054 25.1362 130.532 25.1702 130.011 25.1702C129.49 25.1702 129.025 25.1248 128.617 25.0342C128.232 24.9662 127.903 24.8302 127.631 24.6262C127.359 24.4222 127.155 24.1388 127.019 23.7762C126.883 23.4135 126.815 22.9375 126.815 22.3482V17.0442H120.287V24.8642C120.038 24.9322 119.641 25.0002 119.097 25.0682C118.576 25.1362 118.054 25.1702 117.533 25.1702C117.012 25.1702 116.547 25.1248 116.139 25.0342C115.754 24.9662 115.425 24.8302 115.153 24.6262C114.881 24.4222 114.677 24.1388 114.541 23.7762C114.405 23.4135 114.337 22.9375 114.337 22.3482V4.39617C114.586 4.35084 114.983 4.29417 115.527 4.22617C116.071 4.13551 116.592 4.09017 117.091 4.09017C117.612 4.09017 118.066 4.13551 118.451 4.22617C118.859 4.29417 119.199 4.43017 119.471 4.63417C119.743 4.83817 119.947 5.1215 120.083 5.48417C120.219 5.84684 120.287 6.32284 120.287 6.91217V12.3522H126.815V4.39617C127.064 4.35084 127.461 4.29417 128.005 4.22617C128.549 4.13551 129.07 4.09017 129.569 4.09017C130.09 4.09017 130.544 4.13551 130.929 4.22617C131.337 4.29417 131.677 4.43017 131.949 4.63417C132.221 4.83817 132.425 5.1215 132.561 5.48417C132.697 5.84684 132.765 6.32284 132.765 6.91217V24.8642Z" fill="#6A74C9"/>
<path d="M143.811 21.3282C144.196 21.3282 144.615 21.2942 145.069 21.2262C145.545 21.1355 145.896 21.0222 146.123 20.8862V18.1662L143.675 18.3702C143.04 18.4155 142.519 18.5515 142.111 18.7782C141.703 19.0048 141.499 19.3448 141.499 19.7982C141.499 20.2515 141.669 20.6255 142.009 20.9202C142.371 21.1922 142.972 21.3282 143.811 21.3282ZM143.539 7.96617C144.763 7.96617 145.873 8.09084 146.871 8.34017C147.891 8.58951 148.752 8.97484 149.455 9.49617C150.18 9.99484 150.735 10.6408 151.121 11.4342C151.506 12.2048 151.699 13.1228 151.699 14.1882V21.8042C151.699 22.3935 151.529 22.8808 151.189 23.2662C150.871 23.6288 150.486 23.9462 150.033 24.2182C148.559 25.1022 146.485 25.5442 143.811 25.5442C142.609 25.5442 141.521 25.4308 140.547 25.2042C139.595 24.9775 138.767 24.6375 138.065 24.1842C137.385 23.7308 136.852 23.1528 136.467 22.4502C136.104 21.7475 135.923 20.9315 135.923 20.0022C135.923 18.4382 136.387 17.2368 137.317 16.3982C138.246 15.5595 139.685 15.0382 141.635 14.8342L146.089 14.3582V14.1202C146.089 13.4628 145.794 12.9982 145.205 12.7262C144.638 12.4315 143.811 12.2842 142.723 12.2842C141.861 12.2842 141.023 12.3748 140.207 12.5562C139.391 12.7375 138.654 12.9642 137.997 13.2362C137.702 13.0322 137.453 12.7262 137.249 12.3182C137.045 11.8875 136.943 11.4455 136.943 10.9922C136.943 10.4028 137.079 9.93817 137.351 9.59817C137.645 9.23551 138.087 8.92951 138.677 8.68017C139.334 8.43084 140.105 8.24951 140.989 8.13617C141.895 8.02284 142.745 7.96617 143.539 7.96617Z" fill="#6A74C9"/>
<path d="M165.705 14.5282C165.705 13.8255 165.501 13.3155 165.093 12.9982C164.708 12.6582 164.175 12.4882 163.495 12.4882C163.042 12.4882 162.588 12.5448 162.135 12.6582C161.704 12.7715 161.33 12.9415 161.013 13.1682V24.9662C160.786 25.0342 160.424 25.1022 159.925 25.1702C159.449 25.2382 158.95 25.2722 158.429 25.2722C157.93 25.2722 157.477 25.2382 157.069 25.1702C156.684 25.1022 156.355 24.9662 156.083 24.7622C155.811 24.5582 155.596 24.2862 155.437 23.9462C155.301 23.5835 155.233 23.1188 155.233 22.5522V12.3522C155.233 11.7402 155.358 11.2415 155.607 10.8562C155.879 10.4708 156.242 10.1195 156.695 9.80217C157.466 9.25817 158.429 8.81617 159.585 8.47617C160.764 8.13617 162.067 7.96617 163.495 7.96617C166.056 7.96617 168.028 8.53284 169.411 9.66617C170.794 10.7768 171.485 12.3295 171.485 14.3242V24.9662C171.258 25.0342 170.896 25.1022 170.397 25.1702C169.921 25.2382 169.422 25.2722 168.901 25.2722C168.402 25.2722 167.949 25.2382 167.541 25.1702C167.156 25.1022 166.827 24.9662 166.555 24.7622C166.283 24.5582 166.068 24.2862 165.909 23.9462C165.773 23.5835 165.705 23.1188 165.705 22.5522V14.5282Z" fill="#6A74C9"/>
<path d="M174.341 16.7382C174.341 15.2422 174.568 13.9502 175.021 12.8622C175.474 11.7515 176.098 10.8335 176.891 10.1082C177.707 9.38284 178.648 8.85017 179.713 8.51017C180.801 8.14751 181.968 7.96617 183.215 7.96617C183.668 7.96617 184.11 8.0115 184.541 8.10217C184.972 8.17017 185.323 8.26084 185.595 8.37417V2.86617C185.822 2.79817 186.184 2.73017 186.683 2.66217C187.182 2.57151 187.692 2.52617 188.213 2.52617C188.712 2.52617 189.154 2.56017 189.539 2.62817C189.947 2.69617 190.287 2.83217 190.559 3.03617C190.831 3.24017 191.035 3.5235 191.171 3.88617C191.307 4.22617 191.375 4.6795 191.375 5.24617V21.3622C191.375 22.4275 190.876 23.2775 189.879 23.9122C189.222 24.3428 188.372 24.7168 187.329 25.0342C186.286 25.3742 185.085 25.5442 183.725 25.5442C182.252 25.5442 180.926 25.3402 179.747 24.9322C178.591 24.5242 177.605 23.9348 176.789 23.1642C175.996 22.3935 175.384 21.4755 174.953 20.4102C174.545 19.3222 174.341 18.0982 174.341 16.7382ZM183.997 12.4882C182.773 12.4882 181.832 12.8395 181.175 13.5422C180.518 14.2448 180.189 15.3102 180.189 16.7382C180.189 18.1435 180.495 19.2088 181.107 19.9342C181.719 20.6368 182.603 20.9882 183.759 20.9882C184.167 20.9882 184.53 20.9315 184.847 20.8182C185.187 20.6822 185.448 20.5348 185.629 20.3762V12.8962C185.176 12.6242 184.632 12.4882 183.997 12.4882Z" fill="#6A74C9"/>
</svg>
